<svg width="24" height="24" viewBox="0 0 24 24" fill="none" xmlns="http://www.w3.org/2000/svg">
<path d="M14.3566 9.64362C14.6804 9.94982 14.9394 10.3178 15.1185 10.7258C15.2976 11.1339 15.393 11.5737 15.3992 12.0192C15.4054 12.4647 15.3222 12.907 15.1546 13.3199C14.9869 13.7327 14.7382 14.1078 14.4231 14.4229C14.108 14.7379 13.733 14.9867 13.3201 15.1543C12.9073 15.322 12.465 15.4051 12.0195 15.399C11.5739 15.3928 11.1341 15.2973 10.7261 15.1182C10.3181 14.9392 9.95008 14.6801 9.64388 14.3564C9.05501 13.7244 8.73443 12.8886 8.74966 12.0249C8.7649 11.1612 9.11477 10.3372 9.72557 9.72642C10.3364 9.11563 11.1604 8.76576 12.0241 8.75052C12.8877 8.73528 13.7236 9.05587 14.3555 9.64473" stroke="white" stroke-width="1.5" stroke-linecap="round" stroke-linejoin="round"/>
<path d="M16.6449 19.4733C16.9137 19.7416 17.278 19.8924 17.6578 19.8924C18.0376 19.8924 18.4019 19.7416 18.6707 19.4733L19.473 18.671C19.7414 18.4022 19.8921 18.0379 19.8921 17.6581C19.8921 17.2782 19.7414 16.9139 19.473 16.6452C19.2656 16.4381 19.1247 16.1738 19.0685 15.8861C19.0122 15.5984 19.0432 15.3005 19.1574 15.0305L19.2297 14.8527C19.3304 14.6003 19.5048 14.3841 19.7301 14.2323C19.9555 14.0805 20.2214 14 20.4931 14.0015H20.5676C21.3588 14.0015 22 13.3603 22 12.5691V11.4346C22 10.6434 21.3588 10.0022 20.5676 10.0022H20.4931C19.9375 10.0022 19.433 9.66769 19.2297 9.15096L19.1574 8.97316C19.0432 8.70321 19.0122 8.40529 19.0685 8.11761C19.1247 7.82993 19.2656 7.56561 19.473 7.35853C19.7414 7.08976 19.8921 6.72546 19.8921 6.34564C19.8921 5.96581 19.7414 5.60151 19.473 5.33274L18.6707 4.53043C18.4019 4.26205 18.0376 4.11131 17.6578 4.11131C17.278 4.11131 16.9137 4.26205 16.6449 4.53043C16.4378 4.73789 16.1735 4.87877 15.8858 4.93499C15.5982 4.99122 15.3002 4.96024 15.0303 4.84602L14.8525 4.77379C14.6001 4.67171 14.384 4.49639 14.2321 4.27041C14.0802 4.04443 13.9994 3.77815 14.0002 3.50586V3.43141C14.0002 2.64021 13.359 1.99902 12.5678 1.99902H11.4332C11.0532 1.99902 10.6888 2.1499 10.42 2.41849C10.1512 2.68709 10 3.05142 9.9997 3.43141V3.50586C9.9997 4.06148 9.66522 4.56599 9.14849 4.76934C9.08849 4.79379 9.02959 4.81713 8.9707 4.84269C8.70074 4.95691 8.40283 4.98789 8.11515 4.93166C7.82747 4.87543 7.56314 4.73455 7.35607 4.52709C7.08729 4.25871 6.72299 4.10797 6.34317 4.10797C5.96335 4.10797 5.59905 4.25871 5.33028 4.52709L4.52685 5.32941C4.25847 5.59818 4.10773 5.96248 4.10773 6.3423C4.10773 6.72213 4.25847 7.08643 4.52685 7.3552C4.95134 7.77969 5.0758 8.41643 4.84244 8.96983C4.81741 9.02908 4.79333 9.08872 4.77021 9.14874C4.66906 9.40105 4.49439 9.61712 4.26888 9.76891C4.04338 9.9207 3.77745 10.0012 3.50562 9.99995H3.43117C2.63996 9.99995 1.99878 10.6411 1.99878 11.4323V12.5669C1.99878 13.3592 2.63996 14.0004 3.43117 14.0004H3.50562C4.06124 14.0004 4.56574 14.3349 4.7691 14.8516L4.84133 15.0294C5.07469 15.5828 4.95023 16.2196 4.52574 16.6441C4.25736 16.9128 4.10662 17.2771 4.10662 17.6569C4.10662 18.0368 4.25736 18.4011 4.52574 18.6698L5.32805 19.4722C5.59683 19.7405 5.96112 19.8913 6.34095 19.8913C6.72077 19.8913 7.08507 19.7405 7.35384 19.4722C7.56092 19.2647 7.82525 19.1238 8.11293 19.0676C8.4006 19.0114 8.69852 19.0423 8.96847 19.1566L9.14627 19.2288C9.66411 19.4321 9.99748 19.9367 9.99748 20.4923V20.5667C9.99748 21.3579 10.6387 21.9991 11.4299 21.9991H12.5644C13.3556 21.9991 13.9968 21.3579 13.9968 20.5667V20.4923C13.9968 19.9367 14.3313 19.4321 14.848 19.2288L15.0258 19.1566C15.2967 19.0427 15.5953 19.012 15.8836 19.0684C16.1719 19.1248 16.4369 19.2658 16.6449 19.4733V19.4733Z" stroke="white" stroke-width="1.5" stroke-linecap="round" stroke-linejoin="round"/>
</svg>
